HIERARCHY
ROOT Hips
{
	OFFSET 0.000000 0.000000 0.000000
	CHANNELS 6 Xposition Yposition Zposition Zrotation Yrotation Xrotation 
	JOINT LHipJoint
	{
		OFFSET 0.000000 0.000000 0.000000
		CHANNELS 3 Zrotation Yrotation Xrotation
		JOINT LeftUpLeg
		{
			OFFSET 1.363060 -1.794630 0.839290
			CHANNELS 3 Zrotation Yrotation Xrotation
			JOINT LeftLeg
			{
				OFFSET 2.448110 -6.726130 0.000000
				CHANNELS 3 Zrotation Yrotation Xrotation
				JOINT LeftFoot
				{
					OFFSET 2.562200 -7.039590 0.000000
					CHANNELS 3 Zrotation Yrotation Xrotation
					JOINT LeftToeBase
					{
						OFFSET 0.157640 -0.433110 2.322550
						CHANNELS 3 Zrotation Yrotation Xrotation
						End Site
						{
							OFFSET 0.000000 0.000000 0.000000
						}
					}
				}
			}
		}
	}
	JOINT RHipJoint
	{
		OFFSET 0.000000 0.000000 0.000000
		CHANNELS 3 Zrotation Yrotation Xrotation
		JOINT RightUpLeg
		{
			OFFSET -1.305520 -1.794630 0.839290
			CHANNELS 3 Zrotation Yrotation Xrotation
			JOINT RightLeg
			{
				OFFSET -2.542530 -6.985550 0.000000
				CHANNELS 3 Zrotation Yrotation Xrotation
				JOINT RightFoot
				{
					OFFSET -2.568260 -7.056230 0.000000
					CHANNELS 3 Zrotation Yrotation Xrotation
					JOINT RightToeBase
					{
						OFFSET -0.164730 -0.452590 2.363150
						CHANNELS 3 Zrotation Yrotation Xrotation
						End Site
						{
							OFFSET 0.000000 0.000000 0.000000
						}
					}
				}
			}
		}
	}
	JOINT LowerBack
	{
		OFFSET 0.000000 0.000000 0.000000
		CHANNELS 3 Zrotation Yrotation Xrotation
		JOINT Spine
		{
			OFFSET 0.028270 2.035590 -0.193380
			CHANNELS 3 Zrotation Yrotation Xrotation
			JOINT Spine1
			{
				OFFSET 0.056720 2.048850 -0.042750
				CHANNELS 3 Zrotation Yrotation Xrotation
				JOINT Neck
				{
					OFFSET 0.000000 0.000000 0.000000
					CHANNELS 3 Zrotation Yrotation Xrotation
					JOINT Neck1
					{
						OFFSET -0.054170 1.746240 0.172020
						CHANNELS 3 Zrotation Yrotation Xrotation
						JOINT Head
						{
							OFFSET 0.104070 1.761360 -0.123970
							CHANNELS 3 Zrotation Yrotation Xrotation
							End Site
							{
								OFFSET 0.000000 0.000000 0.000000
							}
						}
					}
				}
				JOINT LeftShoulder
				{
					OFFSET 0.000000 0.000000 0.000000
					CHANNELS 3 Zrotation Yrotation Xrotation
					JOINT LeftArm
					{
						OFFSET 3.362410 1.200890 -0.311210
						CHANNELS 3 Zrotation Yrotation Xrotation
						JOINT LeftForeArm
						{
							OFFSET 4.983000 -0.000000 -0.000000
							CHANNELS 3 Zrotation Yrotation Xrotation
							JOINT LeftHand
							{
								OFFSET 3.483560 -0.000000 -0.000000
								CHANNELS 3 Zrotation Yrotation Xrotation
								JOINT LeftFingerBase
								{
									OFFSET 0.000000 0.000000 0.000000
									CHANNELS 3 Zrotation Yrotation Xrotation
									JOINT LeftHandIndex1
									{
										OFFSET 0.715260 -0.000000 -0.000000
										CHANNELS 3 Zrotation Yrotation Xrotation
										End Site
										{
											OFFSET 0.000000 0.000000 0.000000
										}
									}
								}
								JOINT LThumb
								{
									OFFSET 0.000000 0.000000 0.000000
									CHANNELS 3 Zrotation Yrotation Xrotation
									End Site
									{
										OFFSET 0.000000 0.000000 0.000000
									}
								}
							}
						}
					}
				}
				JOINT RightShoulder
				{
					OFFSET 0.000000 0.000000 0.000000
					CHANNELS 3 Zrotation Yrotation Xrotation
					JOINT RightArm
					{
						OFFSET -3.136600 1.374050 -0.404650
						CHANNELS 3 Zrotation Yrotation Xrotation
						JOINT RightForeArm
						{
							OFFSET -5.241900 -0.000000 -0.000000
							CHANNELS 3 Zrotation Yrotation Xrotation
							JOINT RightHand
							{
								OFFSET -3.444170 -0.000000 -0.000000
								CHANNELS 3 Zrotation Yrotation Xrotation
								JOINT RightFingerBase
								{
									OFFSET 0.000000 0.000000 0.000000
									CHANNELS 3 Zrotation Yrotation Xrotation
									JOINT RightHandIndex1
									{
										OFFSET -0.622530 -0.000000 -0.000000
										CHANNELS 3 Zrotation Yrotation Xrotation
										End Site
										{
											OFFSET 0.000000 0.000000 0.000000
										}
									}
								}
								JOINT RThumb
								{
									OFFSET 0.000000 0.000000 0.000000
									CHANNELS 3 Zrotation Yrotation Xrotation
									End Site
									{
										OFFSET 0.000000 0.000000 0.000000
									}
								}
							}
						}
					}
				}
			}
		}
	}
}
MOTION
Frames: 6
Frame Time: 0.008333
0.517267 17.555450 -0.560053 -179.909120 8.775426 -173.448633 -3.378262 19.365560 4.594988 -15.510151 -5.044006 -12.652281 0.536472 0.313487 18.622235 21.889871 -5.241919 -8.907056 -4.715660 1.776197 -7.360803 -2.317133 -19.683071 -1.608057 21.827049 2.809303 -9.761683 -3.258216 1.695596 24.454132 -29.822303 16.752645 -11.653120 6.083458 -2.385774 -10.770106 4.680522 3.462911 3.050254 11.241266 2.785083 17.299666 -15.425395 -11.709503 -27.756220 -6.844387 4.316962 -15.214057 6.903067 3.933240 5.528394 -0.915711 0.174026 -11.340696 9.796562 26.551927 1.557318 -14.355895 -6.350551 15.071768 5.640679 -31.855499 -0.269192 4.041114 9.761309 -0.370702 3.867211 12.343937 0.000000 0.000000 0.000000 0.000000 0.000000 0.000000 0.000000 -20.417315 -39.350192 -9.295552 49.357741 31.793672 22.715813 -5.189959 15.925860 12.695607 0.260883 1.293106 3.687523 1.148886 -8.414217 -0.000000 0.000000 0.000000 0.000000 0.000000 0.000000 0.000000 
0.515881 17.553950 -0.561595 -179.902496 8.733540 -173.444944 -3.371037 19.353505 4.585112 -15.513541 -5.058672 -12.653456 0.544522 0.315779 18.664754 21.891517 -5.256978 -8.951191 -4.717583 1.773287 -7.371861 -2.307280 -19.684720 -1.602841 21.818760 2.814280 -9.771892 -3.269785 1.680268 24.475045 -29.800224 16.733382 -11.686742 6.088821 -2.389723 -10.771008 4.660513 3.453413 3.063379 11.215740 2.775442 17.353579 -15.370576 -11.660911 -27.701891 -6.828924 4.251273 -15.361194 6.881488 3.882549 5.628863 -0.923734 0.168132 -11.291497 9.678908 26.640524 1.544382 -14.784879 -6.504656 15.228128 5.692083 -32.012855 -0.120693 4.126159 9.536615 -0.262119 3.930361 12.287000 0.000000 0.000000 0.000000 0.000000 0.000000 0.000000 0.000000 -20.217653 -39.414980 -9.099658 49.328129 31.596164 23.387597 -5.102571 16.789191 12.751079 0.295282 1.421764 3.718646 1.213218 -8.382679 -0.000000 0.000000 0.000000 0.000000 0.000000 0.000000 0.000000 
0.514263 17.552300 -0.563136 -179.899165 8.689346 -173.442925 -3.365655 19.344169 4.573786 -15.518212 -5.071050 -12.656435 0.551256 0.318409 18.712599 21.889503 -5.275280 -8.996342 -4.724057 1.771024 -7.391431 -2.299421 -19.687635 -1.595622 21.807874 2.818150 -9.781714 -3.279606 1.665082 24.490918 -29.790662 16.711109 -11.720082 6.089164 -2.390653 -10.769279 4.647816 3.442023 3.074657 11.183696 2.764831 17.392264 -15.323592 -11.613563 -27.653994 -6.821500 4.204057 -15.475617 6.871500 3.844701 5.733769 -0.927916 0.160256 -11.238605 9.559511 26.701770 1.531759 -15.235941 -6.647473 15.367336 5.741477 -32.159443 0.012144 4.200548 9.375674 -0.174145 3.985691 12.239997 0.000000 0.000000 0.000000 0.000000 0.000000 0.000000 0.000000 -20.022767 -39.446783 -8.975631 49.463383 31.325586 23.740297 -5.088097 17.613877 12.785797 0.311881 1.659688 3.734146 1.251904 -8.333470 -0.000000 0.000000 0.000000 0.000000 0.000000 0.000000 0.000000 
0.512901 17.550650 -0.564540 -179.897786 8.640611 -173.442654 -3.359886 19.340811 4.562282 -15.525648 -5.086202 -12.666149 0.560628 0.319880 18.778895 21.884048 -5.302888 -9.051438 -4.730573 1.770095 -7.405757 -2.290098 -19.683416 -1.588109 21.793413 2.827902 -9.790837 -3.293705 1.645760 24.511219 -29.771659 16.682093 -11.761217 6.092486 -2.392498 -10.771798 4.635844 3.419653 3.083824 11.144547 2.743934 17.437314 -15.272324 -11.564458 -27.588663 -6.811461 4.140601 -15.611979 6.856403 3.794011 5.841969 -0.934419 0.150760 -11.183974 9.433449 26.758500 1.528767 -15.702767 -6.743090 15.481716 5.759592 -32.384125 0.126355 4.278959 9.251332 -0.105710 4.047476 12.199261 0.000000 0.000000 0.000000 0.000000 0.000000 0.000000 0.000000 -19.814584 -39.472562 -8.808814 49.565686 31.057858 24.241796 -5.042583 18.516245 12.851201 0.309883 1.821075 3.783560 1.283001 -8.293146 -0.000000 0.000000 0.000000 0.000000 0.000000 0.000000 0.000000 
0.511327 17.549000 -0.565785 -179.893753 8.592689 -173.441563 -3.355487 19.347039 4.549154 -15.531582 -5.097681 -12.685312 0.570301 0.323958 18.855139 21.911365 -5.334261 -9.105888 -4.728549 1.763057 -7.422171 -2.279898 -19.679345 -1.585038 21.778728 2.829582 -9.797694 -3.303509 1.626698 24.529919 -29.744043 16.659722 -11.798364 6.099397 -2.397319 -10.775174 4.620875 3.394942 3.100219 11.110434 2.721093 17.484158 -15.203648 -11.513922 -27.535027 -6.800402 4.072974 -15.736560 6.831016 3.741499 5.926693 -0.942335 0.147427 -11.136339 9.320270 26.818213 1.532789 -16.267663 -6.828671 15.599688 5.839207 -32.546121 0.290763 4.369422 9.037904 0.009613 4.115662 12.140275 0.000000 0.000000 0.000000 0.000000 0.000000 0.000000 0.000000 -19.606314 -39.491972 -8.682078 49.745282 30.773781 24.655129 -4.986590 19.377942 12.900674 0.355820 2.083758 3.779705 1.352391 -8.245078 -0.000000 0.000000 0.000000 0.000000 0.000000 0.000000 0.000000 
0.510031 17.547650 -0.568229 -179.887298 8.530104 -173.443515 -3.345966 19.350271 4.535146 -15.534714 -5.105026 -12.698783 0.576507 0.327238 18.934803 21.936431 -5.376367 -9.161619 -4.728993 1.755340 -7.442458 -2.269085 -19.677822 -1.570826 21.761834 2.829258 -9.799135 -3.310590 1.610452 24.536870 -29.716769 16.632870 -11.830986 6.104235 -2.402259 -10.771887 4.600049 3.367378 3.102721 11.053335 2.693519 17.562226 -15.122274 -11.442664 -27.518534 -6.777686 3.995823 -15.859574 6.802609 3.677866 6.034572 -0.952127 0.141879 -11.079049 9.200364 26.904594 1.501557 -16.850257 -6.996304 15.752359 5.907958 -32.694775 0.452563 4.456493 8.814855 0.121776 4.179609 12.078914 0.000000 0.000000 0.000000 0.000000 0.000000 0.000000 0.000000 -19.387127 -39.506860 -8.556085 49.889955 30.429991 25.040262 -4.889111 20.321875 12.842693 0.433037 2.301584 3.695974 1.441011 -8.206258 -0.000000 0.000000 0.000000 0.000000 0.000000 0.000000 0.000000 
